<svg width="498" height="339" viewBox="0 0 498 339" fill="none" xmlns="http://www.w3.org/2000/svg">
<rect width="498" height="339" rx="16" fill="white"/>
<path d="M26.3584 29.8145V40H24.8203V29.8145H26.3584ZM29.653 35.4678V40H28.1765V32.3574H29.612V33.6152H29.7146C29.8877 33.2005 30.1589 32.8724 30.528 32.6309C30.8972 32.3848 31.3711 32.2617 31.9499 32.2617C32.4695 32.2617 32.9229 32.3711 33.3103 32.5898C33.7022 32.804 34.0053 33.1253 34.2195 33.5537C34.4382 33.9821 34.5476 34.513 34.5476 35.1465V40H33.071V35.3242C33.071 34.7728 32.9252 34.3398 32.6335 34.0254C32.3418 33.7064 31.9454 33.5469 31.4441 33.5469C31.1023 33.5469 30.7946 33.6243 30.5212 33.7793C30.2523 33.9297 30.0404 34.1462 29.8855 34.4287C29.7305 34.7113 29.653 35.0576 29.653 35.4678ZM39.435 43.0215C38.5235 43.0215 37.8058 42.8506 37.2817 42.5088C36.7576 42.167 36.3953 41.7614 36.1948 41.292L37.4663 40.7656C37.5574 40.9115 37.6782 41.0664 37.8286 41.2305C37.9835 41.3945 38.1909 41.5335 38.4506 41.6475C38.7104 41.7614 39.0454 41.8184 39.4555 41.8184C40.0161 41.8184 40.4809 41.6816 40.85 41.4082C41.2192 41.1393 41.4038 40.7064 41.4038 40.1094V38.6123H41.3012C41.2192 38.7718 41.0939 38.9518 40.9252 39.1523C40.7566 39.3483 40.5265 39.5192 40.2348 39.665C39.9431 39.8109 39.5626 39.8838 39.0932 39.8838C38.4916 39.8838 37.9493 39.7425 37.4663 39.46C36.9877 39.1729 36.6049 38.7536 36.3178 38.2021C36.0353 37.6462 35.894 36.9626 35.894 36.1514C35.894 35.3402 36.033 34.6452 36.311 34.0664C36.5935 33.4831 36.9763 33.0365 37.4594 32.7266C37.9425 32.4167 38.4916 32.2617 39.1069 32.2617C39.5808 32.2617 39.9636 32.3415 40.2553 32.501C40.5515 32.6559 40.7817 32.8382 40.9457 33.0479C41.1098 33.2575 41.2374 33.4421 41.3286 33.6016H41.4379V32.3574H42.8803V40.1709C42.8803 40.8271 42.7276 41.3649 42.4223 41.7842C42.1215 42.2035 41.7114 42.5133 41.1918 42.7139C40.6723 42.9189 40.0867 43.0215 39.435 43.0215ZM39.4213 38.6465C40.0639 38.6465 40.5561 38.4255 40.8979 37.9834C41.2442 37.5368 41.4174 36.9193 41.4174 36.1309C41.4174 35.6159 41.3422 35.1647 41.1918 34.7773C41.0414 34.3854 40.8181 34.0801 40.5219 33.8613C40.2257 33.638 39.8588 33.5264 39.4213 33.5264C38.9747 33.5264 38.601 33.6426 38.3002 33.875C38.004 34.1029 37.7807 34.415 37.6303 34.8115C37.4799 35.2035 37.4047 35.6432 37.4047 36.1309C37.4047 36.6276 37.4799 37.0674 37.6303 37.4502C37.7807 37.8285 38.0063 38.1224 38.3071 38.332C38.6124 38.5417 38.9838 38.6465 39.4213 38.6465ZM47.8703 40.1572C47.1229 40.1572 46.4757 39.9954 45.9289 39.6719C45.382 39.3483 44.9604 38.8926 44.6642 38.3047C44.3726 37.7122 44.2267 37.0218 44.2267 36.2334C44.2267 35.4495 44.3703 34.7591 44.6574 34.1621C44.949 33.5651 45.3569 33.1003 45.881 32.7676C46.4097 32.4303 47.0295 32.2617 47.7404 32.2617C48.1733 32.2617 48.5926 32.3324 48.9982 32.4736C49.4038 32.6149 49.7684 32.8382 50.092 33.1436C50.4155 33.4489 50.6707 33.8454 50.8576 34.333C51.049 34.8206 51.1447 35.4085 51.1447 36.0967V36.6299H45.0675V35.5156H50.3791L49.6886 35.8848C49.6886 35.4154 49.6157 35.0007 49.4699 34.6406C49.324 34.2806 49.1053 34.0003 48.8136 33.7998C48.5265 33.5947 48.1688 33.4922 47.7404 33.4922C47.312 33.4922 46.9451 33.5947 46.6398 33.7998C46.339 34.0049 46.1089 34.276 45.9494 34.6133C45.7899 34.9505 45.7101 35.3197 45.7101 35.7207V36.4795C45.7101 37.0036 45.8013 37.4479 45.9836 37.8125C46.1658 38.1771 46.4188 38.4551 46.7423 38.6465C47.0705 38.8379 47.451 38.9336 47.8839 38.9336C48.1665 38.9336 48.4217 38.8926 48.6496 38.8105C48.882 38.7285 49.0825 38.6055 49.2511 38.4414C49.4198 38.2773 49.5474 38.0745 49.6339 37.833L51.0421 38.0996C50.9282 38.5098 50.7277 38.8698 50.4406 39.1797C50.1535 39.4896 49.7912 39.7311 49.3537 39.9043C48.9207 40.0729 48.4263 40.1572 47.8703 40.1572ZM58.1786 34.2305L56.8319 34.4629C56.7453 34.2077 56.5835 33.973 56.3466 33.7588C56.1141 33.5446 55.7655 33.4375 55.3007 33.4375C54.8814 33.4375 54.5305 33.5332 54.2479 33.7246C53.9699 33.9115 53.8309 34.1507 53.8309 34.4424C53.8309 34.6976 53.9244 34.9049 54.1112 35.0645C54.3026 35.224 54.6057 35.3516 55.0204 35.4473L56.244 35.7207C56.9413 35.8802 57.4631 36.1309 57.8095 36.4727C58.1558 36.8145 58.329 37.252 58.329 37.7852C58.329 38.2454 58.1968 38.6556 57.9325 39.0156C57.6682 39.3711 57.3013 39.6514 56.8319 39.8564C56.3625 40.057 55.8202 40.1572 55.205 40.1572C54.3482 40.1572 53.6509 39.9727 53.1132 39.6035C52.5754 39.2344 52.245 38.7148 52.122 38.0449L53.5507 37.8262C53.6418 38.1999 53.8264 38.4824 54.1044 38.6738C54.3869 38.8652 54.7515 38.9609 55.1981 38.9609C55.6812 38.9609 56.0686 38.8584 56.3602 38.6533C56.6565 38.4482 56.8046 38.1999 56.8046 37.9082C56.8046 37.4251 56.4445 37.0993 55.7245 36.9307L54.4325 36.6436C53.717 36.4795 53.1884 36.222 52.8466 35.8711C52.5093 35.5156 52.3407 35.069 52.3407 34.5312C52.3407 34.0801 52.466 33.6836 52.7167 33.3418C52.9719 33 53.3205 32.7357 53.7626 32.5488C54.2092 32.3574 54.7173 32.2617 55.287 32.2617C56.1164 32.2617 56.7658 32.4417 57.2352 32.8018C57.7092 33.1618 58.0236 33.638 58.1786 34.2305ZM63.2027 32.3574V33.5537H59.0328V32.3574H63.2027ZM60.1471 30.5391H61.6305V37.7578C61.6305 38.1087 61.7034 38.3662 61.8492 38.5303C61.9951 38.6898 62.2298 38.7695 62.5533 38.7695C62.6308 38.7695 62.7128 38.765 62.7994 38.7559C62.8906 38.7467 62.9817 38.7331 63.0729 38.7148L63.3531 39.9453C63.2027 39.9954 63.0387 40.0342 62.8609 40.0615C62.6832 40.0889 62.5055 40.1025 62.3277 40.1025C61.6669 40.1025 61.1383 39.918 60.7418 39.5488C60.3453 39.1751 60.1471 38.6784 60.1471 38.0586V30.5391ZM64.5491 40V32.3574H66.0257V40H64.5491ZM65.2943 31.1816C65.0345 31.1816 64.8135 31.0951 64.6312 30.9219C64.4489 30.7487 64.3577 30.5413 64.3577 30.2998C64.3577 30.0537 64.4489 29.8441 64.6312 29.6709C64.8135 29.4977 65.0345 29.4111 65.2943 29.4111C65.5495 29.4111 65.7682 29.4977 65.9505 29.6709C66.1374 29.8441 66.2308 30.0537 66.2308 30.2998C66.2308 30.5413 66.1374 30.7487 65.9505 30.9219C65.7682 31.0951 65.5495 31.1816 65.2943 31.1816ZM70.9336 40.1572C70.2181 40.1572 69.5915 39.9932 69.0537 39.665C68.5205 39.3369 68.1058 38.8766 67.8096 38.2842C67.5179 37.6917 67.3721 37.0036 67.3721 36.2197C67.3721 35.4268 67.5179 34.734 67.8096 34.1416C68.1058 33.5446 68.5205 33.082 69.0537 32.7539C69.5915 32.4258 70.2181 32.2617 70.9336 32.2617C71.6537 32.2617 72.2803 32.4258 72.8135 32.7539C73.3467 33.082 73.7614 33.5446 74.0577 34.1416C74.3539 34.734 74.502 35.4268 74.502 36.2197C74.502 37.0036 74.3539 37.6917 74.0577 38.2842C73.7614 38.8766 73.3467 39.3369 72.8135 39.665C72.2803 39.9932 71.6537 40.1572 70.9336 40.1572ZM70.9336 38.9062C71.403 38.9062 71.7904 38.7832 72.0957 38.5371C72.4011 38.291 72.6267 37.9652 72.7725 37.5596C72.9229 37.1494 72.9981 36.7028 72.9981 36.2197C72.9981 35.7275 72.9229 35.2764 72.7725 34.8662C72.6267 34.4561 72.4011 34.1279 72.0957 33.8818C71.7904 33.6357 71.403 33.5127 70.9336 33.5127C70.4688 33.5127 70.0837 33.6357 69.7784 33.8818C69.4776 34.1279 69.252 34.4561 69.1016 34.8662C68.9512 35.2764 68.876 35.7275 68.876 36.2197C68.876 36.7028 68.9512 37.1494 69.1016 37.5596C69.252 37.9652 69.4776 38.291 69.7784 38.5371C70.0837 38.7832 70.4688 38.9062 70.9336 38.9062ZM77.3318 35.4678V40H75.8552V32.3574H77.2908V33.6152H77.3933C77.5665 33.2005 77.8377 32.8724 78.2068 32.6309C78.5759 32.3848 79.0499 32.2617 79.6287 32.2617C80.1482 32.2617 80.6017 32.3711 80.989 32.5898C81.381 32.804 81.684 33.1253 81.8982 33.5537C82.117 33.9821 82.2263 34.513 82.2263 35.1465V40H80.7498V35.3242C80.7498 34.7728 80.6039 34.3398 80.3123 34.0254C80.0206 33.7064 79.6241 33.5469 79.1228 33.5469C78.781 33.5469 78.4734 33.6243 78.2 33.7793C77.9311 33.9297 77.7192 34.1462 77.5642 34.4287C77.4093 34.7113 77.3318 35.0576 77.3318 35.4678ZM87.4348 40V29.8145H91.0715C91.8599 29.8145 92.5139 29.9512 93.0334 30.2246C93.5529 30.4935 93.9426 30.8695 94.2023 31.3525C94.4621 31.8311 94.592 32.3848 94.592 33.0137C94.592 33.6335 94.4621 34.1803 94.2023 34.6543C93.9426 35.1283 93.5507 35.4951 93.0266 35.7549C92.507 36.0146 91.8508 36.1445 91.0578 36.1445H88.3166V34.832H90.9143C91.4201 34.832 91.828 34.7591 92.1379 34.6133C92.4523 34.4674 92.6802 34.2601 92.8215 33.9912C92.9673 33.7223 93.0402 33.3965 93.0402 33.0137C93.0402 32.6263 92.9673 32.2936 92.8215 32.0156C92.6757 31.7331 92.4455 31.5166 92.1311 31.3662C91.8212 31.2113 91.4133 31.1338 90.9074 31.1338H88.9729V40H87.4348ZM93.2316 40L90.7639 35.3994H92.466L94.9816 40H93.2316ZM98.2695 40.1641C97.7864 40.1641 97.3489 40.0752 96.957 39.8975C96.565 39.7152 96.2551 39.4508 96.0273 39.1045C95.7994 38.7581 95.6855 38.3366 95.6855 37.8398C95.6855 37.4069 95.7675 37.0537 95.9316 36.7803C96.1002 36.5023 96.3258 36.2812 96.6083 36.1172C96.8909 35.9531 97.2053 35.8301 97.5517 35.748C97.898 35.666 98.2535 35.6022 98.6181 35.5566C99.0784 35.5065 99.4498 35.4632 99.7323 35.4268C100.015 35.3903 100.22 35.3333 100.348 35.2559C100.48 35.1738 100.546 35.0439 100.546 34.8662V34.832C100.546 34.3991 100.423 34.0641 100.177 33.8271C99.9351 33.5902 99.5751 33.4717 99.0966 33.4717C98.5999 33.4717 98.2057 33.5811 97.914 33.7998C97.6269 34.014 97.4286 34.2578 97.3193 34.5312L95.9179 34.21C96.0865 33.7451 96.3303 33.3714 96.6493 33.0889C96.9729 32.8018 97.342 32.5921 97.7568 32.46C98.176 32.3278 98.6135 32.2617 99.0693 32.2617C99.3746 32.2617 99.6982 32.2982 100.04 32.3711C100.382 32.4395 100.703 32.5693 101.004 32.7607C101.309 32.9476 101.558 33.2165 101.749 33.5674C101.94 33.9183 102.036 34.3717 102.036 34.9277V40H100.58V38.9541H100.525C100.434 39.141 100.291 39.3278 100.095 39.5146C99.9032 39.7015 99.6572 39.8564 99.3564 39.9795C99.0556 40.1025 98.6933 40.1641 98.2695 40.1641ZM98.5907 38.9746C99.0055 38.9746 99.3586 38.8949 99.6503 38.7354C99.942 38.5713 100.165 38.3571 100.32 38.0928C100.475 37.8285 100.553 37.5482 100.553 37.252V36.2607C100.498 36.3109 100.395 36.3587 100.245 36.4043C100.095 36.4499 99.9238 36.4886 99.7323 36.5205C99.5409 36.5524 99.3541 36.582 99.1718 36.6094C98.9895 36.6322 98.8368 36.6504 98.7138 36.6641C98.4267 36.7051 98.1646 36.7689 97.9277 36.8555C97.6907 36.9375 97.4993 37.0605 97.3534 37.2246C97.2122 37.3841 97.1415 37.596 97.1415 37.8604C97.1415 38.2295 97.2782 38.5075 97.5517 38.6943C97.8251 38.8812 98.1715 38.9746 98.5907 38.9746ZM107.299 32.3574V33.5537H103.13V32.3574H107.299ZM104.244 30.5391H105.727V37.7578C105.727 38.1087 105.8 38.3662 105.946 38.5303C106.092 38.6898 106.326 38.7695 106.65 38.7695C106.728 38.7695 106.81 38.765 106.896 38.7559C106.987 38.7467 107.078 38.7331 107.17 38.7148L107.45 39.9453C107.299 39.9954 107.135 40.0342 106.958 40.0615C106.78 40.0889 106.602 40.1025 106.424 40.1025C105.764 40.1025 105.235 39.918 104.839 39.5488C104.442 39.1751 104.244 38.6784 104.244 38.0586V30.5391ZM111.852 40.1572C111.105 40.1572 110.457 39.9954 109.911 39.6719C109.364 39.3483 108.942 38.8926 108.646 38.3047C108.354 37.7122 108.208 37.0218 108.208 36.2334C108.208 35.4495 108.352 34.7591 108.639 34.1621C108.931 33.5651 109.339 33.1003 109.863 32.7676C110.391 32.4303 111.011 32.2617 111.722 32.2617C112.155 32.2617 112.574 32.3324 112.98 32.4736C113.385 32.6149 113.75 32.8382 114.074 33.1436C114.397 33.4489 114.652 33.8454 114.839 34.333C115.031 34.8206 115.126 35.4085 115.126 36.0967V36.6299H109.049V35.5156H114.361L113.67 35.8848C113.67 35.4154 113.597 35.0007 113.452 34.6406C113.306 34.2806 113.087 34.0003 112.795 33.7998C112.508 33.5947 112.15 33.4922 111.722 33.4922C111.294 33.4922 110.927 33.5947 110.621 33.7998C110.321 34.0049 110.091 34.276 109.931 34.6133C109.772 34.9505 109.692 35.3197 109.692 35.7207V36.4795C109.692 37.0036 109.783 37.4479 109.965 37.8125C110.147 38.1771 110.4 38.4551 110.724 38.6465C111.052 38.8379 111.433 38.9336 111.866 38.9336C112.148 38.9336 112.403 38.8926 112.631 38.8105C112.864 38.7285 113.064 38.6055 113.233 38.4414C113.401 38.2773 113.529 38.0745 113.616 37.833L115.024 38.0996C114.91 38.5098 114.709 38.8698 114.422 39.1797C114.135 39.4896 113.773 39.7311 113.335 39.9043C112.902 40.0729 112.408 40.1572 111.852 40.1572Z" fill="#666D80"/>
<path d="M32.375 79.625V63.8906H35.9375V79.625H32.375ZM26.2969 73.5469V69.9688H42.0156V73.5469H26.2969ZM44.9844 81V77.9688L53.0781 70.0312C53.8385 69.25 54.474 68.5573 54.9844 67.9531C55.5052 67.349 55.8958 66.7656 56.1562 66.2031C56.4167 65.6302 56.5469 65.0208 56.5469 64.375C56.5469 63.6458 56.3802 63.0156 56.0469 62.4844C55.7135 61.9531 55.2552 61.5469 54.6719 61.2656C54.099 60.9844 53.4427 60.8438 52.7031 60.8438C51.9323 60.8438 51.2604 61 50.6875 61.3125C50.1146 61.625 49.6667 62.0677 49.3438 62.6406C49.0312 63.2135 48.875 63.8958 48.875 64.6875H44.875C44.875 63.2188 45.2083 61.9427 45.875 60.8594C46.5521 59.7656 47.4844 58.9167 48.6719 58.3125C49.8594 57.7083 51.2188 57.4062 52.75 57.4062C54.3229 57.4062 55.6979 57.6979 56.875 58.2812C58.0521 58.8646 58.9688 59.6667 59.625 60.6875C60.2812 61.6979 60.6094 62.8542 60.6094 64.1562C60.6094 65.0312 60.4427 65.8906 60.1094 66.7344C59.776 67.5677 59.1875 68.5 58.3438 69.5312C57.5104 70.5521 56.3385 71.7865 54.8281 73.2344L50.8281 77.3125V77.4844H60.9531V81H44.9844ZM71.75 57.375C72.875 57.3854 73.9635 57.5833 75.0156 57.9688C76.0781 58.3542 77.0312 58.9792 77.875 59.8438C78.7188 60.7083 79.3906 61.8646 79.8906 63.3125C80.3906 64.7604 80.6406 66.5521 80.6406 68.6875C80.6406 70.6771 80.4271 72.4583 80 74.0312C79.5833 75.5938 78.974 76.9219 78.1719 78.0156C77.3802 79.099 76.4219 79.9271 75.2969 80.5C74.1719 81.0625 72.9167 81.3438 71.5312 81.3438C70.0625 81.3438 68.7604 81.0521 67.625 80.4688C66.4896 79.8854 65.5729 79.0938 64.875 78.0938C64.1771 77.0938 63.7448 75.9583 63.5781 74.6875H67.7344C67.9427 75.5938 68.375 76.3229 69.0312 76.875C69.6979 77.4167 70.5312 77.6875 71.5312 77.6875C73.1354 77.6875 74.3698 76.9844 75.2344 75.5781C76.1094 74.1719 76.5521 72.2344 76.5625 69.7656H76.3906C76.0156 70.4323 75.5312 71.0052 74.9375 71.4844C74.3542 71.9635 73.6927 72.3333 72.9531 72.5938C72.2135 72.8542 71.4271 72.9844 70.5938 72.9844C69.2292 72.9844 68 72.6615 66.9062 72.0156C65.8125 71.3594 64.9479 70.4583 64.3125 69.3125C63.6771 68.1667 63.3594 66.8646 63.3594 65.4062C63.3594 63.875 63.7083 62.5052 64.4062 61.2969C65.1146 60.0781 66.0938 59.1198 67.3438 58.4219C68.6042 57.7135 70.0729 57.3646 71.75 57.375ZM71.7812 60.8125C70.9583 60.8125 70.2188 61.0156 69.5625 61.4219C68.9062 61.8177 68.3906 62.3542 68.0156 63.0312C67.6406 63.7083 67.4531 64.4688 67.4531 65.3125C67.4531 66.1458 67.6354 66.901 68 67.5781C68.3646 68.2552 68.8698 68.7917 69.5156 69.1875C70.1615 69.5729 70.8958 69.7656 71.7188 69.7656C72.5417 69.7656 73.2812 69.5625 73.9375 69.1562C74.6042 68.7396 75.1302 68.1927 75.5156 67.5156C75.901 66.8281 76.0938 66.0833 76.0938 65.2812C76.0938 64.4792 75.9062 63.7396 75.5312 63.0625C75.1667 62.3854 74.6562 61.8438 74 61.4375C73.3542 61.0208 72.6146 60.8125 71.7812 60.8125ZM85.3594 81.2656C84.651 81.2656 84.0521 81.026 83.5625 80.5469C83.0833 80.0573 82.8438 79.4635 82.8438 78.7656C82.8438 78.0677 83.0833 77.4792 83.5625 77C84.0521 76.5104 84.651 76.2656 85.3594 76.2656C86.0677 76.2656 86.6615 76.5104 87.1406 77C87.6302 77.4792 87.875 78.0677 87.875 78.7656C87.875 79.4635 87.6302 80.0573 87.1406 80.5469C86.6615 81.026 86.0677 81.2656 85.3594 81.2656ZM90.9219 76.6875V73.3281L100.812 57.7188H103.594V62.5H101.891L95.2344 73.0312V73.2188H109.031V76.6875H90.9219ZM102.016 81V75.6719L102.078 74.1562V57.7188H106.047V81H102.016ZM123.922 76.625V75.4062C123.922 74.5 124.109 73.6667 124.484 72.9062C124.859 72.1458 125.417 71.5365 126.156 71.0781C126.896 70.6198 127.792 70.3906 128.844 70.3906C129.917 70.3906 130.818 70.6198 131.547 71.0781C132.276 71.5365 132.823 72.1458 133.188 72.9062C133.562 73.6562 133.75 74.4896 133.75 75.4062V76.625C133.75 77.5312 133.562 78.3646 133.188 79.125C132.812 79.8854 132.26 80.4948 131.531 80.9531C130.802 81.4115 129.906 81.6406 128.844 81.6406C127.781 81.6406 126.88 81.4115 126.141 80.9531C125.401 80.4948 124.844 79.8854 124.469 79.125C124.104 78.3646 123.922 77.5312 123.922 76.625ZM126.875 75.4062V76.625C126.875 77.2292 127.021 77.7812 127.312 78.2812C127.604 78.7812 128.115 79.0312 128.844 79.0312C129.562 79.0312 130.062 78.7812 130.344 78.2812C130.625 77.7812 130.766 77.2292 130.766 76.625V75.4062C130.766 74.8021 130.63 74.25 130.359 73.75C130.099 73.25 129.594 73 128.844 73C128.125 73 127.615 73.25 127.312 73.75C127.021 74.25 126.875 74.8021 126.875 75.4062ZM112.094 63.3125V62.0938C112.094 61.1771 112.286 60.3438 112.672 59.5938C113.057 58.8333 113.615 58.224 114.344 57.7656C115.073 57.3073 115.958 57.0781 117 57.0781C118.083 57.0781 118.99 57.3073 119.719 57.7656C120.448 58.224 121 58.8333 121.375 59.5938C121.75 60.3438 121.932 61.1771 121.922 62.0938V63.3125C121.932 64.2188 121.745 65.0521 121.359 65.8125C120.974 66.5729 120.417 67.1823 119.688 67.6406C118.958 68.0885 118.062 68.3125 117 68.3125C115.938 68.3125 115.042 68.0833 114.312 67.625C113.583 67.1667 113.031 66.5573 112.656 65.7969C112.281 65.0365 112.094 64.2083 112.094 63.3125ZM115.078 62.0938V63.3125C115.078 63.9167 115.219 64.4688 115.5 64.9688C115.781 65.4688 116.281 65.7135 117 65.7031C117.74 65.7135 118.245 65.4688 118.516 64.9688C118.797 64.4688 118.938 63.9167 118.938 63.3125V62.0938C118.938 61.4896 118.802 60.9375 118.531 60.4375C118.271 59.9271 117.76 59.6719 117 59.6719C116.292 59.6719 115.792 59.9271 115.5 60.4375C115.219 60.9479 115.078 61.5 115.078 62.0938ZM113.375 81L129.375 57.7188H132.234L116.234 81H113.375Z" fill="#0D0D12"/>
<rect x="148.5" y="58.5" width="64" height="21" rx="10.5" fill="#E7FEF8"/>
<rect x="148.5" y="58.5" width="64" height="21" rx="10.5" stroke="#C6EDE5"/>
<g clip-path="url(#clip0_7949_5681)">
<path d="M160.001 65V73M160.001 65L157.001 68M160.001 65L163.001 68M160.001 75.6667C156.319 75.6667 153.334 72.6819 153.334 69C153.334 65.3181 156.319 62.3333 160.001 62.3333C163.683 62.3333 166.667 65.3181 166.667 69C166.667 72.6819 163.683 75.6667 160.001 75.6667Z" stroke="#40C4AA" stroke-width="1.33333" stroke-linecap="round" stroke-linejoin="round"/>
</g>
<path d="M175.68 73.1172C175.066 73.1172 174.521 73.0137 174.045 72.8066C173.568 72.5957 173.191 72.3027 172.914 71.9277C172.641 71.5527 172.498 71.1191 172.486 70.627H174.08C174.092 70.8652 174.168 71.0723 174.309 71.248C174.453 71.4199 174.645 71.5547 174.883 71.6523C175.121 71.7461 175.387 71.793 175.68 71.793C175.992 71.793 176.268 71.7383 176.506 71.6289C176.748 71.5156 176.938 71.3633 177.074 71.1719C177.211 70.9766 177.279 70.752 177.279 70.498C177.279 70.2324 177.209 69.998 177.068 69.7949C176.932 69.5918 176.732 69.4336 176.471 69.3203C176.209 69.207 175.895 69.1504 175.527 69.1504H174.748V67.9316H175.527C175.824 67.9316 176.088 67.8789 176.318 67.7734C176.549 67.668 176.729 67.5215 176.857 67.334C176.986 67.1426 177.051 66.9199 177.051 66.666C177.051 66.4199 176.994 66.2051 176.881 66.0215C176.771 65.8379 176.615 65.6953 176.412 65.5938C176.209 65.4922 175.971 65.4414 175.697 65.4414C175.432 65.4414 175.184 65.4902 174.953 65.5879C174.727 65.6816 174.543 65.8164 174.402 65.9922C174.266 66.168 174.193 66.3789 174.186 66.625H172.668C172.676 66.1367 172.814 65.707 173.084 65.3359C173.357 64.9648 173.723 64.6758 174.18 64.4688C174.637 64.2578 175.148 64.1523 175.715 64.1523C176.293 64.1523 176.797 64.2617 177.227 64.4805C177.66 64.6953 177.994 64.9863 178.229 65.3535C178.467 65.7207 178.586 66.125 178.586 66.5664C178.586 67.0586 178.441 67.4707 178.152 67.8027C177.863 68.1348 177.482 68.3535 177.01 68.459V68.5234C177.619 68.6094 178.086 68.8359 178.41 69.2031C178.738 69.5703 178.902 70.0273 178.902 70.5742C178.902 71.0625 178.764 71.5 178.486 71.8867C178.209 72.2695 177.828 72.5703 177.344 72.7891C176.859 73.0078 176.305 73.1172 175.68 73.1172ZM181.047 73.0996C180.781 73.0996 180.556 73.0098 180.373 72.8301C180.193 72.6465 180.103 72.4238 180.103 72.1621C180.103 71.9004 180.193 71.6797 180.373 71.5C180.556 71.3164 180.781 71.2246 181.047 71.2246C181.312 71.2246 181.535 71.3164 181.715 71.5C181.898 71.6797 181.99 71.9004 181.99 72.1621C181.99 72.4238 181.898 72.6465 181.715 72.8301C181.535 73.0098 181.312 73.0996 181.047 73.0996ZM183.373 71.3828V70.123L187.082 64.2695H188.125V66.0625H187.486L184.99 70.0117V70.082H190.164V71.3828H183.373ZM187.533 73V71.002L187.556 70.4336V64.2695H189.044V73H187.533ZM191.159 71.3828V70.123L194.868 64.2695H195.911V66.0625H195.273L192.777 70.0117V70.082H197.95V71.3828H191.159ZM195.32 73V71.002L195.343 70.4336V64.2695H196.831V73H195.32ZM203.774 71.3594V70.9023C203.774 70.5625 203.845 70.25 203.985 69.9648C204.126 69.6797 204.335 69.4512 204.612 69.2793C204.89 69.1074 205.226 69.0215 205.62 69.0215C206.022 69.0215 206.36 69.1074 206.634 69.2793C206.907 69.4512 207.112 69.6797 207.249 69.9648C207.39 70.2461 207.46 70.5586 207.46 70.9023V71.3594C207.46 71.6992 207.39 72.0117 207.249 72.2969C207.108 72.582 206.901 72.8105 206.628 72.9824C206.355 73.1543 206.019 73.2402 205.62 73.2402C205.222 73.2402 204.884 73.1543 204.606 72.9824C204.329 72.8105 204.12 72.582 203.98 72.2969C203.843 72.0117 203.774 71.6992 203.774 71.3594ZM204.882 70.9023V71.3594C204.882 71.5859 204.937 71.793 205.046 71.9805C205.155 72.168 205.347 72.2617 205.62 72.2617C205.89 72.2617 206.077 72.168 206.183 71.9805C206.288 71.793 206.341 71.5859 206.341 71.3594V70.9023C206.341 70.6758 206.29 70.4688 206.189 70.2812C206.091 70.0938 205.901 70 205.62 70C205.351 70 205.159 70.0938 205.046 70.2812C204.937 70.4688 204.882 70.6758 204.882 70.9023ZM199.339 66.3672V65.9102C199.339 65.5664 199.411 65.2539 199.556 64.9727C199.7 64.6875 199.909 64.459 200.183 64.2871C200.456 64.1152 200.788 64.0293 201.179 64.0293C201.585 64.0293 201.925 64.1152 202.198 64.2871C202.472 64.459 202.679 64.6875 202.819 64.9727C202.96 65.2539 203.028 65.5664 203.024 65.9102V66.3672C203.028 66.707 202.958 67.0195 202.814 67.3047C202.669 67.5898 202.46 67.8184 202.187 67.9902C201.913 68.1582 201.577 68.2422 201.179 68.2422C200.78 68.2422 200.444 68.1562 200.171 67.9844C199.897 67.8125 199.69 67.584 199.55 67.2988C199.409 67.0137 199.339 66.7031 199.339 66.3672ZM200.458 65.9102V66.3672C200.458 66.5938 200.511 66.8008 200.616 66.9883C200.722 67.1758 200.909 67.2676 201.179 67.2637C201.456 67.2676 201.646 67.1758 201.747 66.9883C201.853 66.8008 201.905 66.5938 201.905 66.3672V65.9102C201.905 65.6836 201.855 65.4766 201.753 65.2891C201.655 65.0977 201.464 65.002 201.179 65.002C200.913 65.002 200.726 65.0977 200.616 65.2891C200.511 65.4805 200.458 65.6875 200.458 65.9102ZM199.819 73L205.819 64.2695H206.892L200.892 73H199.819Z" fill="#40C4AA"/>
<path d="M28.1426 101.357V102.355H24.0273V101.357H28.1426ZM25.2578 109V100.305C25.2578 99.8672 25.3604 99.5026 25.5654 99.2109C25.7751 98.9193 26.0439 98.7005 26.3721 98.5547C26.7002 98.4089 27.0443 98.3359 27.4043 98.3359C27.696 98.3359 27.9329 98.361 28.1152 98.4111C28.3021 98.4567 28.4388 98.5 28.5254 98.541L28.1836 99.5527C28.1243 99.5299 28.0423 99.5049 27.9375 99.4775C27.8372 99.4456 27.7005 99.4297 27.5273 99.4297C27.14 99.4297 26.8574 99.5299 26.6797 99.7305C26.5065 99.9264 26.4199 100.214 26.4199 100.592V109H25.2578ZM29.4206 109V101.357H30.5417V102.52H30.6238C30.765 102.141 31.018 101.836 31.3825 101.604C31.7517 101.367 32.1641 101.248 32.6198 101.248C32.7064 101.248 32.8135 101.25 32.9411 101.255C33.0687 101.255 33.1667 101.257 33.2351 101.262V102.451C33.1941 102.442 33.1029 102.428 32.9616 102.41C32.8204 102.392 32.67 102.383 32.5105 102.383C32.1413 102.383 31.8109 102.46 31.5193 102.615C31.2276 102.77 30.9974 102.982 30.8288 103.251C30.6648 103.52 30.5827 103.827 30.5827 104.174V109H29.4206ZM37.1108 109.164C36.4226 109.164 35.8188 109 35.2993 108.672C34.7797 108.344 34.3741 107.883 34.0825 107.291C33.7954 106.699 33.6518 106.01 33.6518 105.227C33.6518 104.429 33.7954 103.734 34.0825 103.142C34.3741 102.545 34.7797 102.082 35.2993 101.754C35.8188 101.426 36.4226 101.262 37.1108 101.262C37.8035 101.262 38.4096 101.426 38.9291 101.754C39.4487 102.082 39.8543 102.545 40.1459 103.142C40.4376 103.734 40.5834 104.429 40.5834 105.227C40.5834 106.01 40.4376 106.699 40.1459 107.291C39.8543 107.883 39.4487 108.344 38.9291 108.672C38.4096 109 37.8035 109.164 37.1108 109.164ZM37.1108 108.111C37.6394 108.111 38.0724 107.977 38.4096 107.708C38.7468 107.439 38.9975 107.086 39.1616 106.648C39.3256 106.206 39.4077 105.732 39.4077 105.227C39.4077 104.712 39.3256 104.233 39.1616 103.791C38.9975 103.349 38.7468 102.993 38.4096 102.725C38.0724 102.451 37.6394 102.314 37.1108 102.314C36.5913 102.314 36.1629 102.451 35.8256 102.725C35.4884 102.993 35.2377 103.349 35.0737 103.791C34.9096 104.233 34.8276 104.712 34.8276 105.227C34.8276 105.732 34.9096 106.206 35.0737 106.648C35.2377 107.086 35.4884 107.439 35.8256 107.708C36.1629 107.977 36.5913 108.111 37.1108 108.111ZM41.9982 109V101.357H43.1193V102.561H43.2287C43.3882 102.15 43.6457 101.831 44.0011 101.604C44.3566 101.376 44.7827 101.262 45.2795 101.262C45.7808 101.262 46.1977 101.376 46.5304 101.604C46.8677 101.831 47.1297 102.15 47.3166 102.561H47.3986C47.5991 102.164 47.8931 101.85 48.2804 101.617C48.6724 101.38 49.1395 101.262 49.6818 101.262C50.3654 101.262 50.9259 101.476 51.3634 101.904C51.8009 102.328 52.0197 102.989 52.0197 103.887V109H50.8439V103.887C50.8439 103.322 50.689 102.918 50.3791 102.677C50.0692 102.435 49.7046 102.314 49.2853 102.314C48.7521 102.314 48.3374 102.479 48.0412 102.807C47.7495 103.13 47.6037 103.536 47.6037 104.023V109H46.4005V103.764C46.4005 103.331 46.2615 102.982 45.9836 102.718C45.7056 102.449 45.3433 102.314 44.8966 102.314C44.5913 102.314 44.3065 102.396 44.0421 102.561C43.7778 102.725 43.5636 102.95 43.3996 103.237C43.2401 103.524 43.1603 103.855 43.1603 104.229V109H41.9982ZM58.527 98.8145V109H57.3648V98.8145H58.527ZM62.553 109.178C62.07 109.178 61.6302 109.087 61.2337 108.904C60.8372 108.717 60.5228 108.449 60.2904 108.098C60.0579 107.747 59.9417 107.323 59.9417 106.826C59.9417 106.389 60.0283 106.035 60.2015 105.767C60.3747 105.493 60.6048 105.279 60.8919 105.124C61.1836 104.965 61.5026 104.846 61.8489 104.769C62.1999 104.691 62.553 104.63 62.9085 104.584C63.3734 104.525 63.7493 104.479 64.0364 104.447C64.3281 104.415 64.54 104.361 64.6722 104.283C64.8089 104.206 64.8773 104.074 64.8773 103.887V103.846C64.8773 103.358 64.7428 102.98 64.4739 102.711C64.2096 102.438 63.8063 102.301 63.264 102.301C62.708 102.301 62.2705 102.424 61.9515 102.67C61.6325 102.911 61.4092 103.171 61.2816 103.449L60.1605 103.053C60.361 102.588 60.6276 102.226 60.9603 101.966C61.2975 101.706 61.6621 101.524 62.054 101.419C62.4505 101.314 62.8402 101.262 63.223 101.262C63.4691 101.262 63.7516 101.291 64.0706 101.351C64.3896 101.405 64.6995 101.524 65.0003 101.706C65.3057 101.884 65.5563 102.155 65.7523 102.52C65.9528 102.88 66.053 103.363 66.053 103.969V109H64.8773V107.961H64.8226C64.7451 108.125 64.6129 108.303 64.4261 108.494C64.2392 108.681 63.9909 108.843 63.681 108.979C63.3756 109.112 62.9997 109.178 62.553 109.178ZM62.7308 108.125C63.1956 108.125 63.5876 108.034 63.9066 107.852C64.2256 107.669 64.4671 107.435 64.6312 107.147C64.7952 106.856 64.8773 106.553 64.8773 106.238V105.158C64.8271 105.217 64.7178 105.272 64.5491 105.322C64.3851 105.368 64.1937 105.409 63.9749 105.445C63.7607 105.482 63.5511 105.514 63.346 105.541C63.1409 105.564 62.9769 105.582 62.8538 105.596C62.5485 105.637 62.2637 105.703 61.9993 105.794C61.735 105.881 61.5208 106.01 61.3568 106.184C61.1973 106.357 61.1175 106.594 61.1175 106.895C61.1175 107.3 61.2679 107.608 61.5687 107.817C61.874 108.022 62.2614 108.125 62.7308 108.125ZM73.2373 103.08L72.1846 103.367C72.0843 103.107 71.9112 102.861 71.6651 102.629C71.4235 102.392 71.0453 102.273 70.5303 102.273C70.0655 102.273 69.6781 102.383 69.3682 102.602C69.0583 102.816 68.9034 103.085 68.9034 103.408C68.9034 103.7 69.0082 103.932 69.2178 104.105C69.432 104.279 69.7647 104.42 70.2159 104.529L71.3506 104.803C72.0297 104.967 72.5355 105.22 72.8682 105.562C73.2054 105.903 73.3741 106.339 73.3741 106.867C73.3741 107.305 73.2487 107.697 72.9981 108.043C72.7474 108.389 72.3988 108.663 71.9522 108.863C71.5056 109.064 70.986 109.164 70.3936 109.164C69.6143 109.164 68.9694 108.993 68.459 108.651C67.9532 108.31 67.6319 107.815 67.4952 107.168L68.6026 106.895C68.7074 107.305 68.9079 107.612 69.2041 107.817C69.5049 108.022 69.8968 108.125 70.3799 108.125C70.9222 108.125 71.3552 108.009 71.6787 107.776C72.0069 107.539 72.1709 107.259 72.1709 106.936C72.1709 106.398 71.7927 106.038 71.0362 105.855L69.7647 105.555C69.0629 105.386 68.5479 105.129 68.2198 104.782C67.8916 104.436 67.7276 104.001 67.7276 103.477C67.7276 103.044 67.8483 102.661 68.0899 102.328C68.336 101.995 68.6709 101.736 69.0948 101.549C69.5186 101.357 69.9971 101.262 70.5303 101.262C71.2914 101.262 71.8861 101.43 72.3145 101.768C72.7474 102.1 73.0551 102.538 73.2373 103.08ZM78.0838 101.357V102.355H74.1326V101.357H78.0838ZM75.281 99.5391H76.4431V106.812C76.4431 107.209 76.5252 107.501 76.6892 107.688C76.8533 107.87 77.113 107.961 77.4685 107.961C77.546 107.961 77.6257 107.956 77.7078 107.947C77.7944 107.938 77.8878 107.924 77.988 107.906L78.2341 108.959C78.1248 109 77.9903 109.032 77.8308 109.055C77.6759 109.082 77.5186 109.096 77.3591 109.096C76.7439 109.096 76.2426 108.913 75.8552 108.549C75.4724 108.184 75.281 107.71 75.281 107.127V99.5391ZM84.7687 109L82.4445 101.357H83.675L85.3293 107.209H85.4113L87.0383 101.357H88.2961L89.8957 107.195H89.9777L91.632 101.357H92.8625L90.5383 109H89.3898L87.7082 103.135H87.5988L85.9172 109H84.7687ZM96.9843 109.164C96.2506 109.164 95.6148 109 95.0771 108.672C94.5439 108.344 94.1337 107.886 93.8466 107.298C93.5595 106.705 93.4159 106.02 93.4159 105.24C93.4159 104.456 93.5572 103.766 93.8398 103.169C94.1223 102.572 94.5188 102.105 95.0292 101.768C95.5442 101.43 96.1458 101.262 96.8339 101.262C97.2304 101.262 97.6246 101.328 98.0165 101.46C98.4085 101.592 98.7639 101.806 99.0829 102.103C99.4065 102.399 99.664 102.791 99.8554 103.278C100.047 103.766 100.143 104.365 100.143 105.076V105.582H94.2499V104.57H99.5068L98.9667 104.953C98.9667 104.443 98.887 103.989 98.7275 103.593C98.568 103.196 98.3287 102.884 98.0097 102.656C97.6952 102.428 97.3033 102.314 96.8339 102.314C96.3645 102.314 95.9612 102.431 95.6239 102.663C95.2913 102.891 95.0361 103.189 94.8583 103.559C94.6806 103.928 94.5917 104.324 94.5917 104.748V105.418C94.5917 105.997 94.692 106.487 94.8925 106.888C95.093 107.289 95.3733 107.594 95.7333 107.804C96.0933 108.009 96.5103 108.111 96.9843 108.111C97.2896 108.111 97.5676 108.068 97.8183 107.981C98.0689 107.89 98.2854 107.756 98.4677 107.578C98.65 107.396 98.789 107.173 98.8847 106.908L100.019 107.236C99.901 107.619 99.7004 107.956 99.4179 108.248C99.1399 108.535 98.7935 108.761 98.3788 108.925C97.9641 109.084 97.4993 109.164 96.9843 109.164ZM104.729 109.164C103.995 109.164 103.36 109 102.822 108.672C102.289 108.344 101.879 107.886 101.591 107.298C101.304 106.705 101.161 106.02 101.161 105.24C101.161 104.456 101.302 103.766 101.585 103.169C101.867 102.572 102.264 102.105 102.774 101.768C103.289 101.43 103.891 101.262 104.579 101.262C104.975 101.262 105.369 101.328 105.761 101.46C106.153 101.592 106.509 101.806 106.828 102.103C107.151 102.399 107.409 102.791 107.6 103.278C107.792 103.766 107.887 104.365 107.887 105.076V105.582H101.995V104.57H107.252L106.712 104.953C106.712 104.443 106.632 103.989 106.472 103.593C106.313 103.196 106.074 102.884 105.755 102.656C105.44 102.428 105.048 102.314 104.579 102.314C104.109 102.314 103.706 102.431 103.369 102.663C103.036 102.891 102.781 103.189 102.603 103.559C102.425 103.928 102.337 104.324 102.337 104.748V105.418C102.337 105.997 102.437 106.487 102.637 106.888C102.838 107.289 103.118 107.594 103.478 107.804C103.838 108.009 104.255 108.111 104.729 108.111C105.034 108.111 105.312 108.068 105.563 107.981C105.814 107.89 106.03 107.756 106.213 107.578C106.395 107.396 106.534 107.173 106.63 106.908L107.764 107.236C107.646 107.619 107.445 107.956 107.163 108.248C106.885 108.535 106.538 108.761 106.124 108.925C105.709 109.084 105.244 109.164 104.729 109.164ZM110.369 106.211L110.341 104.762H110.587L113.923 101.357H115.372L111.818 104.967H111.708L110.369 106.211ZM109.275 109V98.8145H110.437V109H109.275ZM114.115 109L111.134 105.227L111.968 104.406L115.619 109H114.115Z" fill="#666D80"/>
<g filter="url(#filter0_d_7949_5681)">
<rect x="434" y="24" width="40" height="40" rx="10" fill="white" shape-rendering="crispEdges"/>
<rect x="434.5" y="24.5" width="39" height="39" rx="9.5" stroke="#DFE1E6" shape-rendering="crispEdges"/>
<path d="M462.333 39.8333V44.8333M462.333 39.8333H457.333M462.333 39.8333L456.825 45.3406C456.151 46.0148 455.095 46.1193 454.302 45.5905L452.03 44.0762C451.237 43.5473 450.181 43.6519 449.507 44.3261L445.666 48.1667" stroke="#129426" stroke-width="2" stroke-linecap="round" stroke-linejoin="round"/>
</g>
<rect x="23.5" y="137.5" width="451" height="41" rx="10.5" fill="#F9F9FB"/>
<rect x="23.5" y="137.5" width="451" height="41" rx="10.5" stroke="#DFE1E6"/>
<mask id="path-12-inside-1_7949_5681" fill="white">
<path d="M24 154C24 148.399 24 145.599 25.0899 143.46C26.0487 141.578 27.5785 140.049 29.4601 139.09C31.5992 138 34.3995 138 40 138H174V178H40C34.3995 178 31.5992 178 29.4601 176.91C27.5785 175.951 26.0487 174.422 25.0899 172.54C24 170.401 24 167.601 24 162V154Z"/>
</mask>
<path d="M24 154C24 148.399 24 145.599 25.0899 143.46C26.0487 141.578 27.5785 140.049 29.4601 139.09C31.5992 138 34.3995 138 40 138H174V178H40C34.3995 178 31.5992 178 29.4601 176.91C27.5785 175.951 26.0487 174.422 25.0899 172.54C24 170.401 24 167.601 24 162V154Z" fill="white"/>
<path d="M24 138H174H24ZM174 178H24H174ZM24 178V138V178ZM175 138V178H173V138H175Z" fill="#DFE1E6" mask="url(#path-12-inside-1_7949_5681)"/>
<path d="M83.3984 163.5L80.5273 153.314H82.5098L84.3486 160.8H84.4375L86.3994 153.314H88.2109L90.1592 160.807H90.2617L92.0869 153.314H94.083L91.2051 163.5H89.3799L87.3428 156.363H87.2607L85.2305 163.5H83.3984ZM97.7468 163.65C96.9812 163.65 96.3204 163.491 95.7644 163.172C95.2084 162.848 94.78 162.393 94.4792 161.805C94.183 161.217 94.0349 160.524 94.0349 159.727C94.0349 158.938 94.183 158.248 94.4792 157.655C94.7754 157.058 95.1924 156.593 95.7302 156.261C96.268 155.928 96.9014 155.762 97.6306 155.762C98.1 155.762 98.5443 155.837 98.9636 155.987C99.3874 156.138 99.7611 156.37 100.085 156.685C100.413 156.999 100.67 157.4 100.857 157.888C101.044 158.371 101.137 158.947 101.137 159.617V160.178H94.8757V158.968H100.242L99.4011 159.323C99.4011 158.89 99.335 158.514 99.2029 158.195C99.0707 157.872 98.8747 157.619 98.615 157.437C98.3552 157.254 98.0316 157.163 97.6443 157.163C97.2569 157.163 96.9265 157.254 96.653 157.437C96.3796 157.619 96.1723 157.865 96.031 158.175C95.8897 158.48 95.8191 158.822 95.8191 159.2V160.041C95.8191 160.506 95.8988 160.905 96.0583 161.237C96.2224 161.565 96.4502 161.816 96.7419 161.989C97.0381 162.162 97.3822 162.249 97.7741 162.249C98.0293 162.249 98.2618 162.213 98.4714 162.14C98.6856 162.067 98.8679 161.957 99.0183 161.812C99.1732 161.661 99.2917 161.477 99.3737 161.258L101.055 161.456C100.946 161.898 100.743 162.285 100.447 162.618C100.155 162.946 99.7793 163.201 99.3191 163.384C98.8633 163.562 98.3392 163.65 97.7468 163.65ZM105.779 163.65C105.013 163.65 104.352 163.491 103.796 163.172C103.24 162.848 102.812 162.393 102.511 161.805C102.215 161.217 102.067 160.524 102.067 159.727C102.067 158.938 102.215 158.248 102.511 157.655C102.807 157.058 103.224 156.593 103.762 156.261C104.3 155.928 104.933 155.762 105.663 155.762C106.132 155.762 106.576 155.837 106.996 155.987C107.419 156.138 107.793 156.37 108.117 156.685C108.445 156.999 108.702 157.4 108.889 157.888C109.076 158.371 109.169 158.947 109.169 159.617V160.178H102.908V158.968H108.274L107.433 159.323C107.433 158.89 107.367 158.514 107.235 158.195C107.103 157.872 106.907 157.619 106.647 157.437C106.387 157.254 106.064 157.163 105.676 157.163C105.289 157.163 104.958 157.254 104.685 157.437C104.412 157.619 104.204 157.865 104.063 158.175C103.922 158.48 103.851 158.822 103.851 159.2V160.041C103.851 160.506 103.931 160.905 104.09 161.237C104.254 161.565 104.482 161.816 104.774 161.989C105.07 162.162 105.414 162.249 105.806 162.249C106.061 162.249 106.294 162.213 106.503 162.14C106.718 162.067 106.9 161.957 107.05 161.812C107.205 161.661 107.324 161.477 107.406 161.258L109.087 161.456C108.978 161.898 108.775 162.285 108.479 162.618C108.187 162.946 107.811 163.201 107.351 163.384C106.895 163.562 106.371 163.65 105.779 163.65ZM112.068 161.107L112.061 158.927H112.355L115.096 155.857H117.201L113.824 159.624H113.448L112.068 161.107ZM110.427 163.5V153.314H112.225V163.5H110.427ZM115.219 163.5L112.731 160.027L113.947 158.756L117.372 163.5H115.219Z" fill="#0D0D12"/>
<mask id="path-15-inside-2_7949_5681" fill="white">
<path d="M174 138H324V178H174V138Z"/>
</mask>
<path d="M324 138H323V178H324H325V138H324Z" fill="#DFE1E6" mask="url(#path-15-inside-2_7949_5681)"/>
<path d="M228.82 153.314H230.693L233.934 161.23H234.05L237.297 153.314H239.197V163.5H237.693V156.131H237.598L234.583 163.486H233.366L230.386 156.124H230.29V163.5H228.82V153.314ZM244.215 163.657C243.499 163.657 242.872 163.493 242.335 163.165C241.801 162.837 241.387 162.377 241.091 161.784C240.799 161.192 240.653 160.504 240.653 159.72C240.653 158.927 240.799 158.234 241.091 157.642C241.387 157.045 241.801 156.582 242.335 156.254C242.872 155.926 243.499 155.762 244.215 155.762C244.935 155.762 245.561 155.926 246.094 156.254C246.628 156.582 247.042 157.045 247.339 157.642C247.635 158.234 247.783 158.927 247.783 159.72C247.783 160.504 247.635 161.192 247.339 161.784C247.042 162.377 246.628 162.837 246.094 163.165C245.561 163.493 244.935 163.657 244.215 163.657ZM244.215 162.406C244.684 162.406 245.071 162.283 245.377 162.037C245.682 161.791 245.908 161.465 246.053 161.06C246.204 160.649 246.279 160.203 246.279 159.72C246.279 159.228 246.204 158.776 246.053 158.366C245.908 157.956 245.682 157.628 245.377 157.382C245.071 157.136 244.684 157.013 244.215 157.013C243.75 157.013 243.365 157.136 243.059 157.382C242.759 157.628 242.533 157.956 242.383 158.366C242.232 158.776 242.157 159.228 242.157 159.72C242.157 160.203 242.232 160.649 242.383 161.06C242.533 161.465 242.759 161.791 243.059 162.037C243.365 162.283 243.75 162.406 244.215 162.406ZM250.613 158.968V163.5H249.136V155.857H250.572V157.115H250.674C250.847 156.701 251.119 156.372 251.488 156.131C251.857 155.885 252.331 155.762 252.91 155.762C253.429 155.762 253.883 155.871 254.27 156.09C254.662 156.304 254.965 156.625 255.179 157.054C255.398 157.482 255.507 158.013 255.507 158.646V163.5H254.031V158.824C254.031 158.273 253.885 157.84 253.593 157.525C253.302 157.206 252.905 157.047 252.404 157.047C252.062 157.047 251.754 157.124 251.481 157.279C251.212 157.43 251 157.646 250.845 157.929C250.69 158.211 250.613 158.558 250.613 158.968ZM260.764 155.857V157.054H256.594V155.857H260.764ZM257.708 154.039H259.192V161.258C259.192 161.609 259.264 161.866 259.41 162.03C259.556 162.19 259.791 162.27 260.114 162.27C260.192 162.27 260.274 162.265 260.361 162.256C260.452 162.247 260.543 162.233 260.634 162.215L260.914 163.445C260.764 163.495 260.6 163.534 260.422 163.562C260.244 163.589 260.067 163.603 259.889 163.603C259.228 163.603 258.699 163.418 258.303 163.049C257.906 162.675 257.708 162.178 257.708 161.559V154.039ZM263.751 158.968V163.5H262.274V153.314H263.73V157.115H263.833C264.011 156.701 264.282 156.372 264.646 156.131C265.016 155.885 265.496 155.762 266.089 155.762C266.613 155.762 267.071 155.869 267.463 156.083C267.855 156.297 268.16 156.618 268.379 157.047C268.602 157.475 268.714 158.008 268.714 158.646V163.5H267.224V158.824C267.224 158.259 267.078 157.822 266.786 157.512C266.499 157.202 266.098 157.047 265.583 157.047C265.227 157.047 264.913 157.124 264.64 157.279C264.366 157.43 264.15 157.646 263.99 157.929C263.831 158.211 263.751 158.558 263.751 158.968Z" fill="#0D0D12"/>
<path d="M384.534 153.314H386.277L388.943 157.949H389.053L391.705 153.314H393.462L389.764 159.501V163.5H388.226V159.501L384.534 153.314ZM396.531 163.657C395.784 163.657 395.136 163.495 394.59 163.172C394.043 162.848 393.621 162.393 393.325 161.805C393.033 161.212 392.887 160.522 392.887 159.733C392.887 158.95 393.031 158.259 393.318 157.662C393.61 157.065 394.018 156.6 394.542 156.268C395.07 155.93 395.69 155.762 396.401 155.762C396.834 155.762 397.253 155.832 397.659 155.974C398.065 156.115 398.429 156.338 398.753 156.644C399.076 156.949 399.331 157.345 399.518 157.833C399.71 158.321 399.805 158.909 399.805 159.597V160.13H393.728V159.016H399.04L398.349 159.385C398.349 158.915 398.276 158.501 398.131 158.141C397.985 157.781 397.766 157.5 397.474 157.3C397.187 157.095 396.829 156.992 396.401 156.992C395.973 156.992 395.606 157.095 395.301 157.3C395 157.505 394.77 157.776 394.61 158.113C394.451 158.451 394.371 158.82 394.371 159.221V159.979C394.371 160.504 394.462 160.948 394.644 161.312C394.827 161.677 395.079 161.955 395.403 162.146C395.731 162.338 396.112 162.434 396.545 162.434C396.827 162.434 397.082 162.393 397.31 162.311C397.543 162.229 397.743 162.105 397.912 161.941C398.08 161.777 398.208 161.575 398.295 161.333L399.703 161.6C399.589 162.01 399.388 162.37 399.101 162.68C398.814 162.99 398.452 163.231 398.014 163.404C397.581 163.573 397.087 163.657 396.531 163.657ZM403.339 163.664C402.856 163.664 402.419 163.575 402.027 163.397C401.635 163.215 401.325 162.951 401.097 162.604C400.869 162.258 400.755 161.837 400.755 161.34C400.755 160.907 400.837 160.554 401.001 160.28C401.17 160.002 401.396 159.781 401.678 159.617C401.961 159.453 402.275 159.33 402.622 159.248C402.968 159.166 403.323 159.102 403.688 159.057C404.148 159.007 404.52 158.963 404.802 158.927C405.085 158.89 405.29 158.833 405.417 158.756C405.55 158.674 405.616 158.544 405.616 158.366V158.332C405.616 157.899 405.493 157.564 405.247 157.327C405.005 157.09 404.645 156.972 404.166 156.972C403.67 156.972 403.275 157.081 402.984 157.3C402.697 157.514 402.498 157.758 402.389 158.031L400.988 157.71C401.156 157.245 401.4 156.871 401.719 156.589C402.043 156.302 402.412 156.092 402.827 155.96C403.246 155.828 403.683 155.762 404.139 155.762C404.444 155.762 404.768 155.798 405.11 155.871C405.452 155.939 405.773 156.069 406.074 156.261C406.379 156.448 406.627 156.716 406.819 157.067C407.01 157.418 407.106 157.872 407.106 158.428V163.5H405.65V162.454H405.595C405.504 162.641 405.36 162.828 405.164 163.015C404.973 163.201 404.727 163.356 404.426 163.479C404.125 163.603 403.763 163.664 403.339 163.664ZM403.661 162.475C404.075 162.475 404.428 162.395 404.72 162.235C405.012 162.071 405.235 161.857 405.39 161.593C405.545 161.328 405.623 161.048 405.623 160.752V159.761C405.568 159.811 405.465 159.859 405.315 159.904C405.164 159.95 404.994 159.989 404.802 160.021C404.611 160.052 404.424 160.082 404.242 160.109C404.059 160.132 403.907 160.15 403.784 160.164C403.497 160.205 403.234 160.269 402.998 160.355C402.761 160.438 402.569 160.561 402.423 160.725C402.282 160.884 402.211 161.096 402.211 161.36C402.211 161.729 402.348 162.007 402.622 162.194C402.895 162.381 403.241 162.475 403.661 162.475ZM408.815 163.5V155.857H410.243V157.081H410.325C410.467 156.671 410.713 156.347 411.064 156.11C411.419 155.869 411.82 155.748 412.267 155.748C412.358 155.748 412.465 155.753 412.588 155.762C412.716 155.766 412.818 155.773 412.896 155.782V157.204C412.836 157.186 412.729 157.168 412.574 157.149C412.424 157.131 412.271 157.122 412.116 157.122C411.765 157.122 411.451 157.197 411.173 157.348C410.9 157.493 410.683 157.696 410.524 157.956C410.369 158.211 410.291 158.507 410.291 158.845V163.5H408.815Z" fill="#0D0D12"/>
<path d="M24 211L474 211" stroke="#DFE1E6" stroke-linecap="round" stroke-dasharray="4 4"/>
<path d="M24 258.5L474 258.5" stroke="#DFE1E6" stroke-linecap="round" stroke-dasharray="4 4"/>
<path d="M24 306L474 306" stroke="#DFE1E6" stroke-linecap="round" stroke-dasharray="4 4"/>
<path d="M24 271H39.8609L123.398 256.939L192.976 261.788L269.783 247.242L341.169 258.394L413.458 226.394L474 223" stroke="#54B6ED" stroke-width="3" stroke-linecap="round"/>
<path d="M41.9756 266.5C44.4419 266.5 46.4521 268.509 46.4521 271C46.4521 273.491 44.4419 275.5 41.9756 275.5C39.5094 275.5 37.5 273.491 37.5 271C37.5 268.509 39.5094 266.5 41.9756 266.5Z" fill="white" stroke="#54B6ED" stroke-width="3"/>
<path d="M123.976 252.5C126.442 252.5 128.452 254.509 128.452 257C128.452 259.491 126.442 261.5 123.976 261.5C121.509 261.5 119.5 259.491 119.5 257C119.5 254.509 121.509 252.5 123.976 252.5Z" fill="white" stroke="#54B6ED" stroke-width="3"/>
<path d="M194.976 257.5C197.442 257.5 199.452 259.509 199.452 262C199.452 264.491 197.442 266.5 194.976 266.5C192.509 266.5 190.5 264.491 190.5 262C190.5 259.509 192.509 257.5 194.976 257.5Z" fill="white" stroke="#54B6ED" stroke-width="3"/>
<path d="M270.976 243.5C273.442 243.5 275.452 245.509 275.452 248C275.452 250.491 273.442 252.5 270.976 252.5C268.509 252.5 266.5 250.491 266.5 248C266.5 245.509 268.509 243.5 270.976 243.5Z" fill="white" stroke="#54B6ED" stroke-width="3"/>
<path d="M341.976 253.5C344.442 253.5 346.452 255.509 346.452 258C346.452 260.491 344.442 262.5 341.976 262.5C339.509 262.5 337.5 260.491 337.5 258C337.5 255.509 339.509 253.5 341.976 253.5Z" fill="white" stroke="#54B6ED" stroke-width="3"/>
<path d="M415.976 222.5C418.442 222.5 420.452 224.509 420.452 227C420.452 229.491 418.442 231.5 415.976 231.5C413.509 231.5 411.5 229.491 411.5 227C411.5 224.509 413.509 222.5 415.976 222.5Z" fill="white" stroke="#54B6ED" stroke-width="3"/>
<defs>
<filter id="filter0_d_7949_5681" x="432" y="23" width="44" height="44" filterUnits="userSpaceOnUse" color-interpolation-filters="sRGB">
<feFlood flood-opacity="0" result="BackgroundImageFix"/>
<feColorMatrix in="SourceAlpha" type="matrix" values="0 0 0 0 0 0 0 0 0 0 0 0 0 0 0 0 0 0 127 0" result="hardAlpha"/>
<feOffset dy="1"/>
<feGaussianBlur stdDeviation="1"/>
<feComposite in2="hardAlpha" operator="out"/>
<feColorMatrix type="matrix" values="0 0 0 0 0.0509804 0 0 0 0 0.0509804 0 0 0 0 0.0705882 0 0 0 0.06 0"/>
<feBlend mode="normal" in2="BackgroundImageFix" result="effect1_dropShadow_7949_5681"/>
<feBlend mode="normal" in="SourceGraphic" in2="effect1_dropShadow_7949_5681" result="shape"/>
</filter>
<clipPath id="clip0_7949_5681">
<rect width="16" height="16" fill="white" transform="translate(152 61)"/>
</clipPath>
</defs>
</svg>
