<svg width="36" height="36" viewBox="0 0 36 36" fill="none" xmlns="http://www.w3.org/2000/svg">
<g filter="url(#filter0_i_7949_5724)">
<rect width="36" height="36" rx="18" fill="#129426"/>
<path d="M26.0537 15.6779C25.0395 12.1634 21.7828 9.59397 17.9238 9.59393C14.065 9.59393 10.8092 12.1635 9.79492 15.6779L6.84082 15.6779C7.91743 10.5808 12.4689 6.75018 17.9238 6.75018C23.3789 6.75023 27.9313 10.5807 29.0078 15.6779L26.0537 15.6779ZM29.0078 20.3224C27.9311 25.4195 23.3787 29.2501 17.9238 29.2502C12.4691 29.2502 7.91757 25.4194 6.84082 20.3224L9.79492 20.3224C10.8093 23.8367 14.0652 26.4064 17.9238 26.4064C21.7827 26.4064 25.0394 23.8368 26.0537 20.3224L29.0078 20.3224Z" fill="url(#paint0_linear_7949_5724)" fill-opacity="0.8" stroke="url(#paint1_linear_7949_5724)" stroke-width="0.9"/>
</g>
<defs>
<filter id="filter0_i_7949_5724" x="0" y="-3.6" width="36" height="39.6" filterUnits="userSpaceOnUse" color-interpolation-filters="sRGB">
<feFlood flood-opacity="0" result="BackgroundImageFix"/>
<feBlend mode="normal" in="SourceGraphic" in2="BackgroundImageFix" result="shape"/>
<feColorMatrix in="SourceAlpha" type="matrix" values="0 0 0 0 0 0 0 0 0 0 0 0 0 0 0 0 0 0 127 0" result="hardAlpha"/>
<feOffset dy="-3.6"/>
<feGaussianBlur stdDeviation="3.6"/>
<feComposite in2="hardAlpha" operator="arithmetic" k2="-1" k3="1"/>
<feColorMatrix type="matrix" values="0 0 0 0 1 0 0 0 0 1 0 0 0 0 1 0 0 0 0.64 0"/>
<feBlend mode="normal" in2="shape" result="effect1_innerShadow_7949_5724"/>
</filter>
<linearGradient id="paint0_linear_7949_5724" x1="29.5488" y1="18" x2="-5.70657" y2="18" gradientUnits="userSpaceOnUse">
<stop offset="0.313079" stop-color="white"/>
<stop offset="1" stop-color="white" stop-opacity="0"/>
</linearGradient>
<linearGradient id="paint1_linear_7949_5724" x1="85.9796" y1="59.3032" x2="30.0536" y2="-9.19375" gradientUnits="userSpaceOnUse">
<stop stop-color="white"/>
<stop offset="1" stop-color="white" stop-opacity="0"/>
</linearGradient>
</defs>
</svg>
